# xmcd
# 
# Track frame offsets:
#     150
#     18354
#     35248
#     53194
#     69030
#     82421
#     92224
#     108450
#     129775
#     147673
#     164790
#     178174
# 
# Disc length: 2544
# 
# Revision: 0
# Processed by: cddbd v1.5.2PL0 Copyright (c) Steve Scherf et al.
# Submitted via: fre:ac v1.0.31
# 
DISCID=b009ee0c
DTITLE=Hof Blues Band - Nachwende
DYEAR=2003
DGENRE=Blues
TTITLE0=Hollywood
TTITLE1=Mensch, bin ich froh
TTITLE2=Onkel Kurt II.
TTITLE3=Vitamine
TTITLE4=Kloni
TTITLE5=Kastanienbaum
TTITLE6=Mein Chef
TTITLE7=Politiker
TTITLE8=Mein Urologe
TTITLE9=Detlef
TTITLE10=Was sonst ist Liebe
TTITLE11=OK Das war's
EXTD=
EXTT0=
EXTT1=
EXTT2=
EXTT3=
EXTT4=
EXTT5=
EXTT6=
EXTT7=
EXTT8=
EXTT9=
EXTT10=
EXTT11=
PLAYORDER=
